# xmcd
#
# Track frame offsets:
#	150
#	17018
#	31636
#	49848
#	63904
#	81336
#	95835
#	111486
#	128786
#	143613
#
# Disc length: 2279 seconds
#
# Revision: 0
# Processed by: cddbd v1.5.1PL0 Copyright (c) Steve Scherf et al.
# Submitted via: dBpowerAMP V4.0
#
DISCID=8208e50a
DTITLE=Working Mojo - King of the Streets
DYEAR=2005
DGENRE=Blues
TTITLE0=City of Angels
TTITLE1=King of the Streets
TTITLE2=Who´s been talking
TTITLE3=Honey lover
TTITLE4=Too hot to handle
TTITLE5=Kansas City
TTITLE6=Mean old woman
TTITLE7=Dust my broom
TTITLE8=Choo choo train
TTITLE9=All alone
EXTD=
EXTT0=
EXTT1=
EXTT2=
EXTT3=
EXTT4=
EXTT5=
EXTT6=
EXTT7=
EXTT8=
EXTT9=
PLAYORDER=
